<svg width="24" height="24" viewBox="0 0 24 24" fill="none" xmlns="http://www.w3.org/2000/svg">
<mask id="mask0_1_209" style="mask-type:luminance" maskUnits="userSpaceOnUse" x="0" y="0" width="24" height="24">
<path d="M24 0H0V23.7202H24V0Z" fill="white"/>
</mask>
<g mask="url(#mask0_1_209)">
<path d="M22 12.8483V8.89496C22 3.95325 20 1.97656 15 1.97656H9C4 1.97656 2 3.95325 2 8.89496V14.825C2 19.7667 4 21.7434 9 21.7434H13" stroke="white" stroke-width="1.5" stroke-linecap="round" stroke-linejoin="round"/>
<path d="M7.32996 14.3207L9.70996 11.2667C10.05 10.8318 10.68 10.7527 11.12 11.0888L12.95 12.512C13.39 12.848 14.02 12.769 14.36 12.344L16.67 9.39868" stroke="white" stroke-width="1.5" stroke-linecap="round" stroke-linejoin="round"/>
<path d="M19.48 15.6349L19.76 16.1981C19.9 16.4749 20.25 16.7319 20.56 16.7912L20.94 16.8504C22.08 17.0382 22.35 17.8684 21.53 18.6888L21.18 19.0347C20.95 19.2719 20.82 19.7265 20.89 20.0428L20.94 20.2504C21.25 21.6143 20.52 22.1381 19.32 21.4265L19.06 21.2782C18.75 21.1003 18.25 21.1003 17.94 21.2782L17.68 21.4265C16.47 22.148 15.74 21.6143 16.06 20.2504L16.1099 20.0428C16.1799 19.7265 16.05 19.2719 15.82 19.0347L15.47 18.6888C14.65 17.8684 14.92 17.0382 16.06 16.8504L16.44 16.7912C16.74 16.7418 17.1 16.4749 17.24 16.1981L17.52 15.6349C18.06 14.5576 18.94 14.5576 19.48 15.6349Z" stroke="white" stroke-width="1.5" stroke-linecap="round" stroke-linejoin="round"/>
</g>
</svg>
