<svg width="34" height="34" viewBox="0 0 34 34" fill="none" xmlns="http://www.w3.org/2000/svg">
<g clip-path="url(#clip0_1_297)">
<mask id="mask0_1_297" style="mask-type:luminance" maskUnits="userSpaceOnUse" x="0" y="0" width="34" height="34">
<path d="M34 0H0V34H34V0Z" fill="white"/>
</mask>
<g mask="url(#mask0_1_297)">
<path d="M21.25 32.2291H12.75C5.05748 32.2291 1.77081 28.9424 1.77081 21.2499V12.7499C1.77081 5.05742 5.05748 1.77075 12.75 1.77075H21.25C28.9425 1.77075 32.2291 5.05742 32.2291 12.7499V21.2499C32.2291 28.9424 28.9425 32.2291 21.25 32.2291ZM12.75 3.89575C6.21915 3.89575 3.89581 6.21909 3.89581 12.7499V21.2499C3.89581 27.7808 6.21915 30.1041 12.75 30.1041H21.25C27.7808 30.1041 30.1041 27.7808 30.1041 21.2499V12.7499C30.1041 6.21909 27.7808 3.89575 21.25 3.89575H12.75Z" fill="white"/>
<path d="M12.75 15.2292C10.5966 15.2292 8.85413 13.4867 8.85413 11.3333C8.85413 9.18 10.5966 7.4375 12.75 7.4375C14.9033 7.4375 16.6458 9.18 16.6458 11.3333C16.6458 13.4867 14.9033 15.2292 12.75 15.2292ZM12.75 9.5625C11.7725 9.5625 10.9791 10.3558 10.9791 11.3333C10.9791 12.3108 11.7725 13.1042 12.75 13.1042C13.7275 13.1042 14.5208 12.3108 14.5208 11.3333C14.5208 10.3558 13.7275 9.5625 12.75 9.5625Z" fill="white"/>
<path d="M3.7825 27.9077C3.4425 27.9077 3.1025 27.7377 2.90417 27.4402C2.57834 26.9586 2.70584 26.2927 3.20167 25.9669L10.1858 21.2777C11.7158 20.2436 13.8267 20.3711 15.215 21.5469L15.6825 21.9577C16.3908 22.5669 17.595 22.5669 18.2891 21.9577L24.1825 16.9002C25.6841 15.6111 28.05 15.6111 29.5658 16.9002L31.875 18.8836C32.3141 19.2661 32.3708 19.9319 31.9883 20.3852C31.6058 20.8244 30.94 20.8811 30.4866 20.4986L28.1775 18.5152C27.4691 17.9061 26.265 17.9061 25.5566 18.5152L19.6633 23.5727C18.1616 24.8619 15.7958 24.8619 14.28 23.5727L13.8125 23.1619C13.1608 22.6094 12.0842 22.5527 11.3617 23.0486L4.3775 27.7377C4.19334 27.8511 3.98084 27.9077 3.7825 27.9077Z" fill="white"/>
</g>
</g>
<defs>
<clipPath id="clip0_1_297">
<rect width="34" height="34" fill="white"/>
</clipPath>
</defs>
</svg>
