<svg width="22" height="22" viewBox="0 0 22 22" fill="none" xmlns="http://www.w3.org/2000/svg">
<path d="M16.54 21.4766H4.96C2.22 21.4766 0 19.2466 0 16.5066V9.09656C0 7.73653 0.84 6.02653 1.92 5.18653L7.31 0.986534C8.93 -0.273463 11.52 -0.333462 13.2 0.846534L19.38 5.17653C20.57 6.00653 21.5 7.78653 21.5 9.23656V16.5166C21.5 19.2466 19.28 21.4766 16.54 21.4766ZM8.23 2.16653L2.84 6.36653C2.13 6.92653 1.5 8.19653 1.5 9.09656V16.5066C1.5 18.4166 3.05 19.9766 4.96 19.9766H16.54C18.45 19.9766 20 18.4266 20 16.5166V9.23656C20 8.27653 19.31 6.94653 18.52 6.40653L12.34 2.07653C11.2 1.27653 9.32 1.31653 8.23 2.16653Z" fill="white"/>
<path d="M10.75 17.4766C10.34 17.4766 10 17.1366 10 16.7266V13.7266C10 13.3166 10.34 12.9766 10.75 12.9766C11.16 12.9766 11.5 13.3166 11.5 13.7266V16.7266C11.5 17.1366 11.16 17.4766 10.75 17.4766Z" fill="white"/>
</svg>
