<?xml version="1.0" encoding="UTF-8"?>
<svg version="1.1" xmlns="http://www.w3.org/2000/svg" width="512" height="512">
<path d="M0 0 C2.13960838 -0.32365322 2.13960838 -0.32365322 5 0 C7.13897965 1.66300431 8.89553726 3.24985002 10.76626587 5.17845154 C11.60632756 6.01422174 11.60632756 6.01422174 12.46336019 6.86687618 C14.34134723 8.74130443 16.20086748 10.6330454 18.06103516 12.52514648 C19.40242398 13.87121914 20.74493044 15.21617885 22.08847046 16.56010437 C24.98286258 19.46014226 27.8691506 22.36793493 30.74946976 25.28195 C35.31075346 29.89650801 39.88941815 34.49355267 44.47055054 39.08839417 C51.72363541 46.36737733 58.96474275 53.65814613 66.20093286 60.95392138 C79.13350155 73.99248032 92.0834905 87.01371247 105.04183042 100.02665573 C109.58469806 104.5896713 114.12149864 109.15860851 118.65330052 113.73261344 C121.48707328 116.59102818 124.32500275 119.44529059 127.16388321 122.29863167 C128.47049753 123.61371609 129.77535461 124.93054939 131.07822418 126.24934387 C154.69989366 150.15404226 181.1267759 167.86249758 215.80932617 168.24169922 C232.60849522 168.29487681 232.60849522 168.29487681 249 165 C249.65935547 164.80664062 250.31871094 164.61328125 250.99804688 164.4140625 C278.92004204 156.04521289 298.30351043 136.92920623 318.33007812 116.70410156 C319.6043894 115.42129581 320.8789746 114.13876211 322.15380859 112.85647583 C324.86954652 110.12419043 327.58385004 107.39049121 330.2971344 104.65576935 C334.58798608 100.33199441 338.8850542 96.01443318 343.18347168 91.69818115 C344.6609885 90.2144057 346.13850467 88.73062961 347.6160202 87.24685287 C348.3550228 86.50473415 349.0940254 85.76261542 349.85542202 84.99800825 C359.84312396 74.96741115 369.82603671 64.93211313 379.79492188 54.8828125 C386.54866635 48.07468518 393.31118525 41.2754103 400.08398771 34.48624015 C403.66049452 30.9003539 407.23225117 27.31000094 410.79322815 23.70868683 C414.13155474 20.33263651 417.48122057 16.96827809 420.84008789 13.61266708 C422.07117843 12.37859763 423.29796251 11.14021518 424.52012634 9.89730453 C426.18576119 8.20465079 427.86601804 6.52801325 429.55090332 4.85455322 C430.03329484 4.35691538 430.51568635 3.85927754 431.01269579 3.34655976 C433.31740339 1.08917753 434.58083226 0.04477255 437.84056854 -0.30340958 C438.55318092 -0.20328442 439.2657933 -0.10315926 440 0 C450.19995952 17.95192876 451.15178177 36.21593525 451.14526367 56.44628906 C451.14825983 58.30679898 451.1516634 60.16730828 451.15544128 62.02781677 C451.16423903 67.05899924 451.16661761 72.09016468 451.16725707 77.1213541 C451.16796997 80.27103666 451.17010884 83.42071494 451.17275429 86.57039642 C451.18199374 97.57671888 451.18609093 108.58302926 451.18530273 119.58935547 C451.18470232 129.81965815 451.19525056 140.04990805 451.2110464 150.28019738 C451.22415749 159.08819075 451.22948514 167.89616694 451.22884732 176.70416999 C451.22859339 181.95380243 451.23138678 187.20338791 451.24202538 192.45301056 C451.25176662 197.39428653 451.25174456 202.33547122 451.24450874 207.27675056 C451.24347036 209.08016914 451.24578093 210.88359358 451.2518692 212.68700218 C451.33486855 238.99656045 446.4974088 261.50818929 429 282 C428.39027344 282.80824219 427.78054688 283.61648438 427.15234375 284.44921875 C413.21962643 300.96113238 390.52326918 309.78881427 369.55436707 311.81766796 C359.94102392 312.50387335 350.25465637 312.27973963 340.62326241 312.26144934 C337.05673607 312.25687989 333.49022852 312.26393063 329.92370605 312.26940918 C322.95634596 312.27825738 315.9890292 312.2764017 309.02166748 312.2705839 C303.35424446 312.26604929 297.6868335 312.26546224 292.01940918 312.26763153 C290.80501966 312.26809123 290.80501966 312.26809123 289.56609702 312.26856022 C287.920928 312.26919973 286.27575898 312.26984816 284.63058996 312.2705054 C269.23881509 312.27619529 253.84706413 312.2696719 238.45529318 312.25890467 C225.27617308 312.24997038 212.09708822 312.2515228 198.91796875 312.26074219 C183.57762701 312.27146857 168.23730618 312.2756461 152.89696121 312.26951766 C151.25817108 312.26888063 149.61938095 312.26825188 147.98059082 312.26763153 C146.77142144 312.2671687 146.77142144 312.2671687 145.53782439 312.26669653 C139.88356886 312.26497668 134.2293267 312.26786929 128.57507324 312.27259064 C121.67533333 312.27822586 114.77563886 312.27662787 107.87590408 312.26602915 C104.3621038 312.26080775 100.84837903 312.25865465 97.33457947 312.26532745 C68.4589759 312.30692569 43.01280576 310.42698395 20 291 C19.39800781 290.53078125 18.79601562 290.0615625 18.17578125 289.578125 C1.69942271 276.39703817 -8.13952692 254.36864649 -10.53851795 233.75280952 C-11.00450388 229.41061565 -11.14327552 225.1316302 -11.13371277 220.76754761 C-11.13597833 219.99048277 -11.13824388 219.21341793 -11.14057809 218.41280568 C-11.14685503 215.83622337 -11.14609282 213.25969452 -11.14526367 210.68310547 C-11.14825916 208.82436557 -11.15166259 206.96562629 -11.15544128 205.10688782 C-11.1642472 200.07557899 -11.166618 195.04428719 -11.16725707 190.0129714 C-11.16796967 186.86311893 -11.170108 183.71327074 -11.17275429 180.56341934 C-11.18199744 169.55594866 -11.18609059 158.54849006 -11.18530273 147.54101562 C-11.18470268 137.31132172 -11.19524299 127.08168066 -11.2110464 116.85200012 C-11.224163 108.04486052 -11.22948488 99.23773812 -11.22884732 90.43058884 C-11.22859349 85.18146855 -11.23138108 79.93239524 -11.24202538 74.68328476 C-11.25177558 69.7403774 -11.25173855 64.79756126 -11.24450874 59.8546505 C-11.24347135 58.05165281 -11.24577484 56.24864923 -11.2518692 54.44566154 C-11.29473851 40.87192799 -10.85112792 27.52831792 -6.625 14.5 C-6.33109375 13.54480469 -6.33109375 13.54480469 -6.03125 12.5703125 C-4.54875 7.97268593 -2.4869555 4.10612226 0 0 Z " fill="#000000" transform="translate(36,123)"/>
<path d="M0 0 C3.53926112 0.00457474 7.07850343 -0.00248384 10.61776066 -0.00795984 C17.52983971 -0.01680253 24.44187506 -0.01495486 31.35395575 -0.00913456 C36.97700989 -0.00459775 42.60005188 -0.00401385 48.22310734 -0.00618219 C49.02672541 -0.00648866 49.83034349 -0.00679513 50.65831363 -0.00711088 C52.29140139 -0.0077504 53.92448914 -0.00839883 55.55757689 -0.00905606 C70.83207088 -0.01474434 86.10654077 -0.00822512 101.3810308 0.00254467 C114.45635173 0.01147881 127.53163714 0.00992634 140.60695744 0.00070715 C155.83085368 -0.01002211 171.05472885 -0.01419516 186.27862835 -0.00806832 C187.90534432 -0.0074313 189.5320603 -0.00680255 191.15877628 -0.00618219 C191.95892528 -0.00587364 192.75907429 -0.00556509 193.58347023 -0.00524719 C199.19268388 -0.0035282 204.80188405 -0.00641808 210.41109562 -0.0111413 C217.25698406 -0.01677975 224.1028267 -0.01517188 230.94870996 -0.00457981 C234.43428756 0.00063732 237.9197891 0.00280219 241.40536594 -0.00387812 C295.41109816 -0.0823774 295.41109816 -0.0823774 313.05031681 16.47629309 C313.59172306 17.06539465 314.13312931 17.65449621 314.69094181 18.26144934 C313.25448158 22.94897388 310.53595661 25.83964447 307.1268549 29.20648718 C306.55233727 29.78568478 305.97781964 30.36488238 305.38589239 30.96163142 C303.4601496 32.89933357 301.52386871 34.82614353 299.58742619 36.75314856 C298.20373603 38.14090419 296.82068482 39.52929715 295.43822575 40.91827917 C291.68034353 44.68984973 287.91301801 48.45185377 284.14353848 52.21182919 C280.19590301 56.15186841 276.25559387 60.09922342 272.31411076 64.0454154 C265.68827626 70.67671074 259.05613628 77.30165049 252.420434 83.92307043 C244.76232145 91.56488956 237.11503074 99.21741037 229.47333765 106.875646 C222.90548398 113.45714536 216.33176186 120.03274023 209.75316572 126.60350192 C205.82731126 130.52469248 201.90348015 134.4478501 197.9849329 138.3763442 C194.29487517 142.07511293 190.5974694 145.76638007 186.89443684 149.4521575 C185.54148524 150.80116483 184.19103815 152.15268975 182.84338856 153.50699377 C167.41540546 169.00407483 149.51767713 182.26898258 126.69094181 183.26144934 C125.69062931 183.31301184 124.69031681 183.36457434 123.65969181 183.41769934 C99.65039256 184.06659932 79.67496472 175.25900216 62.34832644 158.84748292 C57.14332457 153.8665584 52.04799667 148.77542023 46.95192814 143.68356848 C45.62193463 142.35821666 44.29174909 141.03305753 42.96138859 139.70807409 C39.38734566 136.14700748 35.81651523 132.58273769 32.24671865 129.01741481 C30.01384913 126.7874937 27.78040132 124.55815336 25.54678249 122.32898283 C18.54944917 115.34527117 11.55408026 108.35960084 4.56161386 101.37101609 C-3.49732646 93.31657568 -11.5628044 85.26875692 -19.63390273 77.22650009 C-25.88907289 70.9929073 -32.1385044 64.75359961 -38.38356477 58.50987858 C-42.10833471 54.78615736 -45.8355032 51.06491426 -49.56866169 47.34960127 C-53.06945296 43.86522729 -56.5630905 40.37383964 -60.05127621 36.87684774 C-61.33344679 35.593904 -62.61819864 34.31353415 -63.90567112 33.03591108 C-65.65892257 31.29529282 -67.40273436 29.54573792 -69.14443111 27.79356909 C-69.91570073 27.03438408 -69.91570073 27.03438408 -70.70255154 26.25986201 C-75.14169339 21.75778951 -75.14169339 21.75778951 -75.30905819 18.26144934 C-72.40253991 14.31413539 -68.18320277 12.36920538 -63.87155819 10.26144934 C-63.15999569 9.9125968 -62.44843319 9.56374426 -61.71530819 9.20432043 C-41.8676534 -0.28900103 -21.54626122 -0.04129461 0 0 Z " fill="#000000" transform="translate(136.3090581893921,76.73855066299438)"/>
</svg>
