<?xml version="1.0" encoding="UTF-8"?>
<svg version="1.1" xmlns="http://www.w3.org/2000/svg" width="512" height="512">
<path d="M0 0 C9.03715133 6.14162727 13.97513702 13.72056433 18.1875 23.75 C18.1875 24.41 18.1875 25.07 18.1875 25.75 C19.33605469 25.83636719 20.48460937 25.92273438 21.66796875 26.01171875 C39.69068298 27.55791379 53.60915706 33.18249167 66.33984375 46.48828125 C74.42657106 56.38725611 79.26602676 68.04503247 79.34863281 80.83447266 C79.35824036 82.03987701 79.3678479 83.24528137 79.37774658 84.48721313 C79.3841214 86.43100357 79.3841214 86.43100357 79.390625 88.4140625 C79.39486607 89.41261827 79.39486607 89.41261827 79.39919281 90.43134689 C79.41415229 93.95830426 79.42340064 97.4852211 79.42773438 101.01220703 C79.4331966 104.62638031 79.45718573 108.2401726 79.48570633 111.85422707 C79.50448625 114.65808127 79.50954651 117.46184678 79.51107025 120.26575851 C79.51550762 122.23691955 79.5340817 124.2080328 79.55303955 126.17910767 C79.51178873 143.00764239 73.97321003 157.07308755 62.12109375 169.05078125 C49.93308974 180.26504326 35.95001033 185.05453856 19.65356445 185.04052734 C18.52235672 185.04724457 17.39114899 185.05396179 16.22566223 185.06088257 C12.50065671 185.07981814 8.77583185 185.08378476 5.05078125 185.0859375 C2.44776843 185.09236919 -0.15524368 185.09909783 -2.758255 185.10610962 C-8.21116299 185.11887213 -13.66402246 185.12187757 -19.11694336 185.12060547 C-25.38926291 185.11940622 -31.66123718 185.14047389 -37.93346947 185.1720928 C-44.00005396 185.20156798 -50.06647492 185.20857689 -56.13312721 185.20738602 C-58.69856995 185.2097351 -61.26401566 185.21851921 -63.82941246 185.23405075 C-85.24350611 185.35154521 -102.28600959 183.51534114 -118.52734375 168.09765625 C-131.44115579 154.83064594 -135.12625507 140.84791507 -135.11328125 122.6953125 C-135.11717911 121.34447094 -135.12151597 119.99363058 -135.12626648 118.64279175 C-135.13368681 115.82383231 -135.13346822 113.00499821 -135.12817383 110.18603516 C-135.12238643 106.60333028 -135.13931253 103.02114361 -135.1625185 99.43852425 C-135.17737 96.65181565 -135.17811216 93.86522857 -135.17500877 91.0784874 C-135.17576019 89.12506576 -135.18953718 87.17166275 -135.20368958 85.21829224 C-135.12187237 69.30606997 -130.28525378 55.60472133 -119.1640625 44 C-105.99849643 31.40304642 -91.83610412 26.58097698 -73.8125 25.75 C-73.4825 24.491875 -73.1525 23.23375 -72.8125 21.9375 C-69.13356345 11.10507572 -61.52765835 3.46321379 -51.8125 -2.25 C-34.99074315 -10.36596684 -16.04162655 -9.47323081 0 0 Z M-52.5625 79.5625 C-58.75942706 88.34148 -59.94934644 95.97925903 -58.8125 106.75 C-56.75016745 115.13356487 -50.88355212 121.96022978 -43.75 126.625 C-35.90813063 131.06125753 -27.94965759 132.22256511 -19.09375 130.09765625 C-10.48165607 127.00102371 -3.1780212 120.85497928 1.1875 112.75 C4.27802126 104.97985967 4.6067403 96.39625816 2.16015625 88.38671875 C-1.59218889 80.20639845 -7.27338775 73.6049043 -15.5625 69.8125 C-30.10835521 65.05712426 -42.04882779 68.80988069 -52.5625 79.5625 Z " fill="#000000" transform="translate(283.8125,167.25)"/>
<path d="M0 0 C4.91709952 2.28293906 7.43806925 5.25568379 10 10 C11.09772193 14.81308848 11.25508266 19.69118423 11.54394531 24.60375977 C14.61065812 74.21983013 36.46486226 117.57114485 73.64794922 150.45751953 C95.73723811 169.17387244 123.16771541 181.36869383 151.3125 187.4375 C152.44921143 187.6835498 152.44921143 187.6835498 153.60888672 187.93457031 C158.48439776 188.90554533 163.03019295 189.14039003 168 189 C169.40682923 184.77951232 169.28071567 180.48656669 169.34179688 176.06835938 C169.59642184 169.73826437 171.86901234 166.02443828 176.5 161.625 C181.66500009 159.22696425 186.4002288 159.24618465 192 160 C196.64647853 162.15729361 200.0131432 165.22969114 202 170 C202.59064752 174.07157019 202.55816028 178.07993002 202.5 182.1875 C202.52320313 183.7972168 202.52320313 183.7972168 202.546875 185.43945312 C202.4907198 197.04252033 199.4507203 205.47770314 191.37109375 213.8359375 C182.69447273 221.75496228 173.87084728 223.65127011 162.36328125 223.37109375 C119.28369618 221.11052169 72.36052147 198.49356256 42.4765625 167.4765625 C40.90233668 165.840442 40.90233668 165.840442 38.5 164.0625 C34.8824303 161.07800499 32.02057461 157.57513324 29 154 C28.2575 153.15695312 27.515 152.31390625 26.75 151.4453125 C-3.67524589 116.24174274 -21.93511258 69.96976652 -22.3125 23.375 C-22.34150391 22.17359375 -22.37050781 20.9721875 -22.40039062 19.734375 C-22.47884511 8.84730586 -22.47884511 8.84730586 -18 4 C-12.72867143 -1.00776214 -6.89190982 -0.92775709 0 0 Z " fill="#000000" transform="translate(70,240)"/>
<path d="M0 0 C15.53344289 8.79137088 30.71452561 19.26336944 43.12890625 32.1484375 C44.70313207 33.784558 44.70313207 33.784558 47.10546875 35.5625 C50.72303845 38.54699501 53.58489414 42.04986676 56.60546875 45.625 C57.34796875 46.46804687 58.09046875 47.31109375 58.85546875 48.1796875 C89.28071464 83.38325726 107.54058133 129.65523348 107.91796875 176.25 C107.94697266 177.45140625 107.97597656 178.6528125 108.00585938 179.890625 C108.08431386 190.77769414 108.08431386 190.77769414 103.60546875 195.625 C99.78616703 199.25333663 96.72267869 199.93500458 91.60546875 200.125 C86.48825881 199.93500458 83.42477047 199.25333663 79.60546875 195.625 C74.46217017 189.2306288 74.52531663 182.90879195 74.06152344 175.02124023 C70.99481063 125.40516987 49.14060649 82.05385515 11.95751953 49.16748047 C-10.24452487 30.35558931 -37.34647331 18.4029802 -65.58203125 12.25 C-66.34773438 12.08201904 -67.1134375 11.91403809 -67.90234375 11.7409668 C-72.81985968 10.74115111 -77.37733983 10.47726843 -82.39453125 10.625 C-83.80136048 14.84548768 -83.67524692 19.13843331 -83.73632812 23.55664062 C-83.99095309 29.88673563 -86.26354359 33.60056172 -90.89453125 38 C-96.05953134 40.39803575 -100.79476005 40.37881535 -106.39453125 39.625 C-111.04100978 37.46770639 -114.40767445 34.39530886 -116.39453125 29.625 C-116.98517877 25.55342981 -116.95269153 21.54506998 -116.89453125 17.4375 C-116.91 16.36435547 -116.92546875 15.29121094 -116.94140625 14.18554688 C-116.88525105 2.58247967 -113.84525155 -5.85270314 -105.765625 -14.2109375 C-79.37974763 -38.2929409 -26.52789436 -14.57124651 0 0 Z " fill="#000000" transform="translate(356.39453125,72.375)"/>
</svg>
